<svg width="194" height="64" viewBox="0 0 194 64" xmlns="http://www.w3.org/2000/svg" xmlns:xlink="http://www.w3.org/1999/xlink">
  <title>
    Protein Dynamix Logo
  </title>
  <defs>
    <path id="a" d="M31.367.77H0v62.69h62.734V.77z"/>
    <path id="c" d="M31.367.77H0v62.69h62.734V.77z"/>
  </defs>
  <g fill="none" fill-rule="evenodd">
    <mask id="b" fill="#fff">
      <use xlink:href="#a"/>
    </mask>
    <path d="M57.065 14.166c-.247-.34-.79-.945-1.76-.945-.936 0-1.533.58-1.793.986L33.394 47.72c-.594 1.007-.258 2.306.75 2.9 1.01.594 2.307.26 2.9-.75l18.283-30.45c2.075 3.896 3.17 8.276 3.17 12.72 0 14.96-12.17 27.13-27.126 27.13-3.714 0-7.313-.738-10.695-2.193-1.275-.548-2.416.234-2.783 1.11-.555 1.32.283 2.44 1.106 2.786 3.92 1.683 8.08 2.537 12.373 2.537 17.294 0 31.364-14.073 31.364-31.37 0-6.48-1.964-12.698-5.67-17.974" fill="#00629B" fill-rule="nonzero" mask="url(#b)"/>
    <mask id="d" fill="#fff">
      <use xlink:href="#c"/>
    </mask>
    <path d="M29.577 14.977c-.137-.55-.48-1.016-.967-1.307-.33-.198-.705-.303-1.09-.303-.74 0-1.44.395-1.82 1.028L7.405 44.862c-2.07-3.892-3.163-8.274-3.163-12.722 0-14.958 12.17-27.127 27.13-27.127 3.71 0 7.305.738 10.686 2.192.268.115.55.174.84.174.845 0 1.608-.505 1.945-1.284.462-1.073-.036-2.323-1.11-2.786C39.82 1.625 35.66.77 31.37.77 14.074.77 0 14.842 0 32.14c0 6.486 1.97 12.717 5.695 18.017.397.563 1.045.9 1.733.9h.06c.713-.022 1.364-.394 1.747-1.005l20.1-33.47c.293-.486.38-1.056.242-1.605" fill="#00629B" fill-rule="nonzero" mask="url(#d)"/>
    <path d="M24.89 50.61c.328.2.705.303 1.09.303.74 0 1.438-.396 1.817-1.03l10.956-18.238c.602-1 .276-2.304-.725-2.907-.33-.2-.706-.305-1.09-.305-.74 0-1.438.395-1.82 1.03L24.163 47.7c-.292.486-.377 1.056-.24 1.607.138.548.48 1.012.966 1.304M24.71 35.547c.328.197.705.3 1.09.3.75 0 1.43-.384 1.82-1.03L38.57 16.58c.6-1.005.274-2.31-.726-2.91-.332-.2-.71-.303-1.092-.303-.75 0-1.43.384-1.82 1.028l-10.95 18.242c-.6 1.005-.274 2.31.727 2.91M81.72 20.535c2.82 0 4.578-1.576 4.578-3.79v-.06c0-2.486-1.79-3.79-4.577-3.79h-4.335v7.64h4.336zm-8.063-9.155c0-1.06.818-1.88 1.878-1.88h6.488c4.973 0 8.065 2.82 8.065 7.094v.06c0 4.76-3.82 7.247-8.49 7.247h-4.213v5.124c0 1.03-.82 1.85-1.85 1.85-1.06 0-1.878-.82-1.878-1.85V11.38zM91.977 16.382c0-1.03.79-1.85 1.82-1.85s1.85.82 1.85 1.85v1.637c.847-2.002 2.424-3.517 4.03-3.517 1.153 0 1.82.757 1.82 1.82 0 .97-.636 1.606-1.456 1.757-2.605.455-4.394 2.455-4.394 6.246v4.73c0 1-.82 1.818-1.85 1.818-1 0-1.82-.79-1.82-1.82V16.383M115.032 22.81v-.06c0-2.82-2.032-5.155-4.912-5.155-2.94 0-4.82 2.303-4.82 5.093v.06c0 2.79 2.03 5.125 4.88 5.125 2.972 0 4.852-2.304 4.852-5.064zm-13.4 0v-.06c0-4.58 3.638-8.37 8.548-8.37 4.912 0 8.52 3.73 8.52 8.308v.06c0 4.55-3.638 8.337-8.58 8.337-4.88 0-8.488-3.728-8.488-8.276zM121.535 26.296v-8.428h-.606c-.88 0-1.577-.698-1.577-1.577 0-.878.696-1.576 1.576-1.576h.605v-2.727c0-1 .82-1.82 1.85-1.82 1 0 1.818.82 1.818 1.82v2.727h2.88c.88 0 1.608.698 1.608 1.577 0 .88-.726 1.578-1.606 1.578h-2.88v7.85c0 1.426.728 2.003 1.97 2.003.425 0 .79-.09.91-.09.82 0 1.545.666 1.545 1.515 0 .667-.454 1.214-.97 1.425-.788.273-1.546.425-2.516.425-2.7 0-4.61-1.183-4.61-4.7M142.128 21.597c-.24-2.364-1.637-4.214-4.062-4.214-2.244 0-3.82 1.728-4.154 4.214h8.216zm-3.637 9.488c-4.638 0-8.215-3.364-8.215-8.306v-.062c0-4.577 3.242-8.337 7.822-8.337 5.093 0 7.608 4.185 7.608 7.884 0 1.03-.787 1.758-1.727 1.758h-10.035c.394 2.608 2.243 4.063 4.608 4.063 1.548 0 2.76-.546 3.79-1.395.274-.21.517-.333.94-.333.82 0 1.456.637 1.456 1.485 0 .454-.212.85-.485 1.122-1.455 1.304-3.274 2.12-5.76 2.12zM148.208 16.382c0-1.03.788-1.85 1.82-1.85 1.03 0 1.848.82 1.848 1.85v12.673c0 1.03-.818 1.82-1.85 1.82-1 0-1.818-.79-1.818-1.82V16.382M155.262 16.382c0-1.03.788-1.85 1.818-1.85s1.85.82 1.85 1.85v.788c1.03-1.486 2.516-2.79 5.002-2.79 3.608 0 5.7 2.426 5.7 6.125v8.55c0 1.03-.79 1.82-1.82 1.82s-1.85-.79-1.85-1.82v-7.427c0-2.487-1.242-3.912-3.425-3.912-2.12 0-3.607 1.485-3.607 3.972v7.367c0 1.03-.82 1.82-1.85 1.82-1 0-1.818-.79-1.818-1.82V16.382M81.57 51.44c4.455 0 7.366-3.003 7.366-7.156v-.06c0-4.154-2.91-7.215-7.367-7.215h-4.185v14.43h4.184zm-7.913-15.948c0-1.06.818-1.88 1.878-1.88h6.034c6.67 0 11.276 4.58 11.276 10.55v.06c0 5.975-4.607 10.613-11.277 10.613h-6.035c-1.06 0-1.878-.818-1.878-1.88V35.492zM95.83 59.322c-.546-.182-1.152-.637-1.152-1.516 0-.91.697-1.516 1.486-1.516.302 0 .485.06.666.122.425.12.758.21 1.274.21 1.09 0 1.667-.454 2.274-1.696l.12-.333-5.94-13.28c-.123-.272-.214-.636-.214-.88 0-1.03.79-1.79 1.82-1.79.94 0 1.455.547 1.79 1.398l4.303 10.64 4.003-10.64c.302-.758.818-1.396 1.757-1.396.97 0 1.76.76 1.76 1.73 0 .303-.09.697-.152.878l-5.852 14.038c-1.364 3.273-2.82 4.486-5.396 4.486-1.03 0-1.79-.15-2.547-.454M111.528 40.495c0-1.03.79-1.85 1.82-1.85s1.85.82 1.85 1.85v.788c1.03-1.485 2.515-2.79 5-2.79 3.61 0 5.7 2.425 5.7 6.126v8.548c0 1.03-.787 1.82-1.818 1.82-1.03 0-1.85-.79-1.85-1.82V45.74c0-2.487-1.242-3.91-3.425-3.91-2.123 0-3.608 1.484-3.608 3.97v7.368c0 1.03-.818 1.82-1.85 1.82-1 0-1.82-.79-1.82-1.82V40.495M139.01 49.075v-1.09c-.94-.366-2.184-.638-3.64-.638-2.364 0-3.76 1-3.76 2.667v.06c0 1.548 1.365 2.426 3.125 2.426 2.425 0 4.274-1.394 4.274-3.425zm-10.976 1.15v-.06c0-3.455 2.698-5.153 6.61-5.153 1.788 0 3.062.273 4.304.667v-.395c0-2.274-1.395-3.486-3.972-3.486-1.394 0-2.546.242-3.546.635-.213.06-.394.09-.576.09-.85 0-1.546-.665-1.546-1.514 0-.667.454-1.243 1-1.455 1.516-.576 3.063-.94 5.154-.94 2.395 0 4.184.637 5.305 1.79 1.182 1.15 1.728 2.848 1.728 4.94v7.884c0 .998-.788 1.757-1.79 1.757-1.06 0-1.788-.728-1.788-1.546v-.606c-1.09 1.304-2.758 2.335-5.214 2.335-3.002 0-5.67-1.73-5.67-4.944zM145.678 40.495c0-1.03.79-1.85 1.82-1.85s1.85.82 1.85 1.85v.757c1.03-1.424 2.425-2.758 4.88-2.758 2.305 0 3.942 1.12 4.79 2.82 1.274-1.7 2.972-2.82 5.397-2.82 3.487 0 5.61 2.212 5.61 6.125v8.548c0 1.03-.79 1.82-1.82 1.82s-1.85-.79-1.85-1.82V45.74c0-2.547-1.182-3.91-3.244-3.91-2 0-3.424 1.393-3.424 3.97v7.368c0 1.03-.818 1.82-1.82 1.82-1.03 0-1.848-.79-1.848-1.82V45.71c0-2.487-1.213-3.88-3.245-3.88-2.03 0-3.425 1.515-3.425 3.97v7.368c0 1.03-.82 1.82-1.85 1.82-1 0-1.82-.79-1.82-1.82V40.495M173.336 40.495c0-1.03.79-1.85 1.82-1.85s1.85.82 1.85 1.85v12.673c0 1.03-.82 1.82-1.85 1.82-1 0-1.82-.79-1.82-1.82V40.495M179.748 52.167l4.548-5.457-4.215-5.003c-.393-.485-.605-.91-.605-1.394 0-1.03.788-1.698 1.698-1.698.727 0 1.243.335 1.697.91l3.608 4.73 3.67-4.7c.423-.545.938-.94 1.575-.94.97 0 1.728.698 1.728 1.607 0 .515-.21.88-.515 1.243L188.6 46.65l4.487 5.304c.395.486.607.91.607 1.396 0 1.03-.788 1.697-1.697 1.697-.728 0-1.244-.333-1.7-.94l-3.88-5.002-3.88 5.002c-.425.515-.94.94-1.607.94-.94 0-1.697-.697-1.697-1.606 0-.515.18-.91.515-1.273M151.876 11.146c0 1.012-.822 1.833-1.834 1.833-1.013 0-1.834-.822-1.834-1.834 0-1.013.82-1.834 1.834-1.834 1.012 0 1.834.82 1.834 1.834M177.005 35.41c0 1.01-.82 1.832-1.834 1.832-1.012 0-1.833-.82-1.833-1.833 0-1.015.82-1.836 1.834-1.836 1.014 0 1.835.82 1.835 1.835" fill="#00629B" fill-rule="nonzero"/>
  </g>
</svg>
